# xmcd CD database file
#
# Track frame offsets:
#	150
#	24077
#	38515
#	53801
#	73756
#	91110
#	109147
#	131292
#	147817
#	167294
#	181118
#	202193
#	223663
#	239740
#
# Disc length: 3662 seconds
#
# Revision: 0
# Processed by: cddbd v1.4PL0 Copyright (c) Steve Scherf et al.
# Submitted via: CDex 1.50
#
DISCID=b90e4c0e
DTITLE=Richard Ray Farrell - Black Limousine
DYEAR=1999
DGENRE=Blues
TTITLE0=I Was Gone
TTITLE1=Jump Back Baby
TTITLE2=Natchl Man
TTITLE3=Black Limousine
TTITLE4=Stick Man
TTITLE5=Let's Go Ridin' Tonight
TTITLE6=All Of Your Love
TTITLE7=Built For Speed
TTITLE8=The Indian Of The Group
TTITLE9=Blonde Haired Woman
TTITLE10=Whole Life Lovin' You
TTITLE11=There's Still A Flame
TTITLE12=Somethin' On The Side
TTITLE13=MDA
EXTD=YEAR: 1999
EXTT0=
EXTT1=
EXTT2=
EXTT3=
EXTT4=
EXTT5=
EXTT6=
EXTT7=
EXTT8=
EXTT9=
EXTT10=
EXTT11=
EXTT12=
EXTT13=
PLAYORDER=
